<?xml version="1.0" encoding="UTF-8" standalone="no"?>
<!-- Created with Inkscape (http://www.inkscape.org/) -->

<svg
   xmlns:dc="http://purl.org/dc/elements/1.1/"
   xmlns:cc="http://creativecommons.org/ns#"
   xmlns:rdf="http://www.w3.org/1999/02/22-rdf-syntax-ns#"
   xmlns:svg="http://www.w3.org/2000/svg"
   xmlns="http://www.w3.org/2000/svg"
   xmlns:sodipodi="http://sodipodi.sourceforge.net/DTD/sodipodi-0.dtd"
   xmlns:inkscape="http://www.inkscape.org/namespaces/inkscape"
   version="1.1"
   id="svg64"
   width="482"
   height="439"
   viewBox="0 0 482 439"
   sodipodi:docname="8WqyNb9.svg"
   inkscape:version="0.92.4 (5da689c313, 2019-01-14)">
  <metadata
     id="metadata70">
    <rdf:RDF>
      <cc:Work
         rdf:about="">
        <dc:format>image/svg+xml</dc:format>
        <dc:type
           rdf:resource="http://purl.org/dc/dcmitype/StillImage" />
        <dc:title></dc:title>
      </cc:Work>
    </rdf:RDF>
  </metadata>
  <defs
     id="defs68" />
  <sodipodi:namedview
     pagecolor="#ffffff"
     bordercolor="#666666"
     borderopacity="1"
     objecttolerance="10"
     gridtolerance="10"
     guidetolerance="10"
     inkscape:pageopacity="0"
     inkscape:pageshadow="2"
     inkscape:window-width="1920"
     inkscape:window-height="1030"
     id="namedview66"
     showgrid="false"
     inkscape:zoom="1.6701291"
     inkscape:cx="43.799315"
     inkscape:cy="211.10044"
     inkscape:window-x="0"
     inkscape:window-y="0"
     inkscape:window-maximized="1"
     inkscape:current-layer="g206" />
  <g
     id="g206">
    <path
       style="fill:#fdfdfc"
       d="m 48.479726,177 403.427754,0.0581 c 0,0 4.17488,0.75055 8.74139,5.20759 4.56651,4.45704 3.35113,13.27936 3.35113,13.27936 v 93.19959 c 0,0 1.01706,7.10825 -3.61745,10.65157 C 455.81206,302.89058 452.13344,302 452.13344,302 L 48.5,301.97641 Z"
       id="path222"
       inkscape:connector-curvature="0"
       sodipodi:nodetypes="cczccsccc" />
    <path
       style="fill:#e8e5d1"
       d="m 214.5,431 c -1.78215,-1.96925 -3.07997,-2 -84.41541,-2 H 47.479163 L 29.739581,411.23986 C 14.05826,395.54036 12,393.10381 12,390.23986 V 387 h 6 6 L 23.98262,336.25 23.96523,285.5 17.982615,279.0297 C 13.031261,273.67473 12,271.95271 12,269.03984 c 0,-3.48865 0.160396,-3.35935 18.259874,14.7203 L 48.519748,302 H 138.25987 228 V 239.5 177 H 138.23986 48.479726 L 30.239863,158.74013 C 15.631748,144.11599 12,139.9446 12,137.79003 c 0,-2.57362 0.249233,-2.70322 5.75,-2.99013 L 23.5,134.5 23.777112,85.5 C 23.929524,58.55 23.829166,35.570037 23.554094,34.433416 23.279023,33.296795 20.566823,29.798942 17.526982,26.660411 12.707403,21.684359 12,20.44497 12,16.976995 V 13 H 93.845012 C 174.42003,13 175.71811,12.96897 177.5,11 c 1.72696,-1.9082708 3.07997,-2 29.5,-2 26.42003,0 27.77304,0.091729 29.5,2 1.78441,1.971755 3.07997,2 91.73777,2 h 89.9278 l 22.33779,22.180488 c 18.51819,18.387787 22.53187,22.876344 23.47281,26.25 0.79804,2.86126 1.0443,19.21158 0.82943,55.069512 -0.3331,55.58909 -0.22381,54.53859 -6.12858,58.91007 -2.80518,2.07675 -3.36478,2.09161 -88.75,2.35631 L 284,178.03277 V 240.01638 302 h 85.06672 85.06672 l 3.49223,2.66365 c 6.61528,5.04572 6.37433,2.69634 6.37433,62.15183 0,53.16047 -0.0292,53.95195 -2.0883,56.56964 -4.63402,5.89121 0.12527,5.61488 -96.70705,5.61488 -87.62468,0 -88.92053,0.0286 -90.70465,2 -1.72843,1.9099 -3.07997,2 -30,2 -26.92003,0 -28.27157,-0.0901 -30,-2 z M 36.220063,285.09744 c -5.896035,-5.44641 -13.384936,-12.62515 -16.642004,-15.95275 -3.257068,-3.32761 -6.294568,-5.8199 -6.75,-5.53842 C 12.372627,263.88774 12,263.41648 12,262.55902 12,261.32022 13.232386,261 18,261 h 6 l 0.04666,-51.25 0.04666,-51.25 11.468796,12.05857 11.468797,12.05857 0.234546,56.19168 c 0.129001,30.90542 0.108575,56.19156 -0.04539,56.19142 -0.153966,-1.3e-4 -5.103966,-4.45639 -11,-9.9028 z M 104,242 v -36 h 6 6 v -6 -6 h 18 18 v 6 6 h 6 6 v 36 36 h -12 -12 v -12 -12 h -6 -6 v 12 12 h -12 -12 z m 36,-18 v -18 h -6 -6 v 18 18 h 6 6 z"
       id="path220"
       inkscape:connector-curvature="0" />
    <path
       style="fill:#d5cca6"
       d="m 214.5,431 c -1.78198,-1.96906 -3.07997,-2 -83.91512,-2 H 48.479726 L 30.239863,410.74013 C 15.467018,395.95107 12,391.95941 12,389.74013 12,387.05775 12.126453,387 18,387 h 6 v -51.22309 -51.2231 l -6.080147,-6.13468 c -4.915685,-4.95977 -6.016917,-6.65511 -5.75,-8.85207 0.306733,-2.52469 1.606712,-1.47181 18.330147,14.84597 l 18,17.56338 90.25,0.0118 L 229,302 V 239.5 177 H 138.95754 48.915077 L 30.457539,158.55087 C 16.159665,144.25951 12,139.52687 12,137.55087 12,135.09981 12.234759,135 18,135 h 6 V 84.036586 33.073173 L 18,26.659154 C 12.951238,21.262011 12,19.670815 12,16.622568 V 13 H 93.845012 C 174.42003,13 175.71811,12.96897 177.5,11 c 1.72696,-1.9082708 3.07997,-2 29.5,-2 26.42003,0 27.77304,0.091729 29.5,2 1.7843,1.971629 3.07997,2 91.33838,2 h 89.52841 l 22.0666,21.75 C 451.57003,46.7125 462.175,57.625 463,59 c 1.26188,2.103135 1.5497,9.744053 1.8131,48.133 0.33239,48.44387 -0.32739,60.97066 -3.435,65.21809 C 457.13692,178.14785 459.58145,178 367.97976,178 H 284 v 62 62 h 84.44284 c 84.29147,0 84.44929,0.004 88.04302,2.12416 1.98009,1.16828 4.48081,3.85035 5.55716,5.96016 1.86963,3.66479 1.95681,6.19219 1.95324,56.62584 -0.004,50.59389 -0.0849,52.92301 -1.95578,55.99129 -4.05227,6.64596 1.2889,6.29855 -96.83583,6.29855 -87.62468,0 -88.92053,0.0286 -90.70465,2 -1.72843,1.9099 -3.07997,2 -30,2 -26.92003,0 -28.27157,-0.0901 -30,-2 z M 42.377742,303.87588 c -5.009723,-5.08621 -7.456806,-8.97534 -7.52226,-4.96002 L 34.876392,302 c 0,0 -1.233035,93.66155 0.04201,94.44957 0.49161,0.30383 0.685827,1.34785 0.431592,2.32005 -0.308262,1.1788 1.47189,3.71733 5.34388,7.62049 l 5.806125,5.85286 0.259109,-51.82789 0.259109,-51.82789 -4.640476,-4.71131 z M 41.121636,51.75 c -3.257387,-3.1625 -6.272532,-7.086687 -7.014789,-7.043266 0.282706,19.211105 0.204632,35.469843 0.124571,51.292994 -0.214049,39.051192 -0.114923,51.331192 -0.114923,51.331192 0,0 3.867709,3.98257 5.966257,6.177 L 46.5,160.19108 46.772079,108.84554 47.044158,57.5 Z M 30.358757,277.53844 14.5,262.09328 19.25,262.04664 24,262 V 210.79705 159.5941 l 3.838769,3.74846 c 4.030098,3.93529 6.250369,6.34012 6.250369,6.34012 -0.0076,-0.59337 5.61e-4,23.40837 0.158075,53.31759 0.139033,26.40016 -0.403593,48 -0.403593,48 0,0 -0.144378,3.03366 0.141661,4.12747 2.383319,3.19639 4.586535,4.94576 7.498679,7.85636 6.293159,6.23722 5.740622,9.17383 5.591753,10.47853 -1.115619,-0.1835 -7.99464,-7.42935 -16.716956,-15.92419 z M 104,242 v -36 h 6 6 v -6 -6 h 18 18 v 6 6 h 6 6 v 36 36 h -12 -12 v -12 -12 h -6 -6 v 12 12 h -12 -12 z m 36,-18 v -18 h -6 -6 v 18 18 h 6 6 z"
       id="path218"
       inkscape:connector-curvature="0"
       sodipodi:nodetypes="cscssscccssscccccccssscccsscssssscssscscccsccccscsccccssscccccscccccccsscccccsssccccscccccccccccccccccccccccccccccccccc" />
    <path
       style="fill:#f3bb0b"
       d="m 214.5,431 c -1.78198,-1.96906 -3.07997,-2 -83.91512,-2 H 48.479726 L 30.239863,410.74013 C 15.467018,395.95107 12,391.95941 12,389.74013 12,387.03433 12.081436,387 18.5,387 c 6.087936,0 6.5,0.14367 6.5,2.26631 0,1.55893 3.589501,5.84563 11.5,13.73369 L 48,414.46738 V 361.56147 308.65556 L 30,290.72657 C 14.298177,275.08669 12,272.39685 12,269.65893 c 0,-2.96683 0.999941,-2.13981 18.265268,15.10659 L 48.530535,303.01078 138.51527,302.75539 228.5,302.5 v -62.77111 -62.77112 l -89.5,0.0207 -89.5,0.0207 -18.75,-18.69461 C 17.027058,144.62217 12,138.97918 12,137.25727 c 0,-2.25107 0.269986,-2.33984 6.25,-2.05499 5.435373,0.25892 6.288452,0.56658 6.54501,2.36044 0.307718,2.15159 20.752359,23.22324 21.65572,22.31988 0.283969,-0.28397 0.549616,-23.66122 0.590325,-51.94945 L 47.115072,56.5 35.307536,44.758899 C 15.271745,24.83584 12,20.893168 12,16.671759 V 13 H 93.845012 C 174.42003,13 175.71811,12.96897 177.5,11 c 1.72696,-1.9082708 3.07997,-2 29.5,-2 26.42003,0 27.77304,0.091729 29.5,2 1.78433,1.971659 3.07997,2 91.4332,2 h 89.62322 L 440.77821,36.298785 464,59.59757 l -0.004,53.95122 c -0.004,51.71248 -0.0846,54.08382 -1.95226,57.14688 -4.02859,6.60707 2.06406,6.17988 -92.80347,6.50695 l -86.25515,0.29738 0.25731,62.5 0.25731,62.5 86.36458,0.5 86.36458,0.5 3.36747,3.89584 c 1.8521,2.14271 3.62088,5.29271 3.93062,7 0.30973,1.70729 0.43031,26.3557 0.26795,54.77425 L 463.5,420.84018 461,423.5151 c -5.38993,5.76706 -0.43615,5.4849 -96.29535,5.4849 -87.12468,0 -88.42068,0.0287 -90.20465,2 -1.72843,1.9099 -3.07997,2 -30,2 -26.92003,0 -28.27157,-0.0901 -30,-2 z M 104,242 v -36 h 6 6 v -6 -6 h 18 18 v 6 6 h 6 6 v 36 36 h -12 -12 v -12 -12 h -6 -6 v 12 12 h -12 -12 z m 36,-18 v -18 h -6 -6 v 18 18 h 6 6 z"
       id="path216"
       inkscape:connector-curvature="0"
       sodipodi:nodetypes="cscssssscccssscccccccsscccscsscssscscccccscccccccccsscsccccccccccccccccccccccccccccccccccc" />
    <path
       style="fill:#ae7655"
       d="m 214.5,431 c -1.78154,-1.96858 -1.74663,-2 2.22257,-2 2.2179,0 4.48921,-0.5625 5.04737,-1.25 0.86436,-1.06467 3.30183,-9.29147 4.81462,-16.25 1.87635,-8.63082 2.44676,-43.23681 2.1967,-133.27113 L 228.5,176.95774 139,176.97846 49.5,176.99919 30.75,158.30458 C 17.027058,144.62217 12,138.97918 12,137.25727 c 0,-2.25107 0.269986,-2.33984 6.25,-2.05499 5.435373,0.25892 6.288452,0.56658 6.54501,2.36044 0.307718,2.15159 20.752359,23.22324 21.65572,22.31988 0.283969,-0.28397 0.549616,-23.66122 0.590325,-51.94945 L 47.115072,56.5 35.307536,44.758899 C 15.271745,24.83584 12,20.893168 12,16.671759 V 13 H 93.845012 C 174.42003,13 175.71811,12.96897 177.5,11 c 1.72696,-1.9082708 3.07997,-2 29.5,-2 26.42003,0 27.77304,0.091729 29.5,2 1.78433,1.971659 3.07997,2 91.4332,2 h 89.62322 L 440.77821,36.298785 464,59.59757 l -0.004,53.95122 c -0.004,51.71248 -0.0846,54.08382 -1.95226,57.14688 -4.02857,6.60705 2.06313,6.17988 -92.79444,6.50695 l -86.2461,0.29738 0.006,102.11168 c 0.008,122.9942 -0.91354,141.32916 -7.53604,150.01171 L 272.89822,433 H 244.6041 c -27.02413,0 -28.37537,-0.0898 -30.1041,-2 z M 30,403.5 13.522732,387 h 5.738634 C 24.558114,387 25,387.17451 25,389.26631 25,390.82524 28.589501,395.11194 36.5,403 45.63165,412.10574 48,415.03708 48,417.23369 48,418.75516 47.657385,420 47.238634,420 46.819882,420 39.062497,412.575 30,403.5 Z m 78,-5.5 v -6 h 12 12 v -12 -12 h -6 -6 v -6 -6 h -6 -6 v -12 -12 h 6 6 v -6 -6 h 18 18 v 6 6 h -12 -12 v 12 12 h 6 6 v 6 6 h 6 6 v 12 12 h -6 -6 v 6 6 h -18 -18 z m -4,-156 v -36 h 6 6 v -6 -6 h 18 18 v 6 6 h 6 6 v 36 36 h -12 -12 v -12 -12 h -6 -6 v 12 12 h -12 -12 z m 36,-18 v -18 h -6 -6 v 18 18 h 6 6 z"
       id="path214"
       inkscape:connector-curvature="0" />
    <path
       style="fill:#97684a"
       d="m 214.5,431 c -1.78198,-1.96907 -1.74663,-2 2.286,-2 2.25278,0 4.37862,-0.45734 4.72408,-1.01631 0.34546,-0.55897 0.95156,-0.81642 1.34688,-0.5721 0.39532,0.24432 0.8126,-0.68961 0.92729,-2.07541 0.11469,-1.38579 0.88031,-5.11211 1.70137,-8.2807 2.91965,-11.26729 3.49685,-33.8326 3.50572,-137.05548 l 0.009,-103.5 -89.75011,0.2531 L 49.5,177.00621 30.75,158.30809 C 9.063394,136.68149 8.143587,135 18,135 c 4.914293,0 6,0.29921 6,1.65355 0,0.90945 5.0625,6.78507 11.25,13.05693 L 46.5,161.11386 47,109.30693 47.5,57.5 29.75,39.005371 C 13.184274,21.744697 12,20.260185 12,16.755371 V 13 h 81.671259 c 71.329961,0 81.377501,-0.667147 83.335001,-0.761619 2.8043,-0.13534 2.01194,0.80555 4.57874,-0.292381 3.11975,1.559408 43.82384,43.069317 43.82384,43.069317 l 1.13117,2.165891 c 0,0 9.56175,-0.113043 26.79449,-0.28292 l 24.53917,-0.241904 -1.36946,-2.57819 C 275.75101,52.660186 266.77943,43.179562 256.56737,33.010137 246.35532,22.840712 238,14.178212 238,13.760137 238,13.342062 278.39117,13 327.75815,13 h 89.75816 L 440.50815,36.008159 463.5,59.016318 v 54.918512 c 0,54.13899 -0.0297,54.95858 -2.08993,57.74184 -1.14947,1.55283 -3.19477,3.3662 -4.54513,4.0297 -1.85199,0.90999 -23.49797,1.24006 -88.10495,1.34349 l -85.64976,0.13712 -0.39887,111.65651 c -0.39187,109.6969 -0.92163,127.92615 -3.74806,128.97112 -0.46802,0.17303 -0.6102,0.94197 -0.31596,1.70876 0.79526,2.07241 -1.61313,8.6158 -2.88244,7.83133 -0.65644,-0.4057 -0.7814,-0.19042 -0.32145,0.5538 0.42299,0.68441 -0.0151,2.06568 -1.00048,3.15451 C 272.78801,432.89173 271.11434,433 244.5,433 c -26.92003,0 -28.27157,-0.0901 -30,-2 z M 30.011366,403.52531 13.522732,387 h 5.238634 C 23.516926,387 24,387.2061 24,389.23498 c 0,1.51624 3.724354,5.96906 11.581237,13.84647 9.78665,9.81221 11.52991,12.02659 11.25,14.29033 -0.305241,2.4686 -1.625289,1.38191 -16.819871,-13.84647 z M 108,398 v -6 h 12 12 v -12 -12 h -6 -6 v -6 -6 h -6 -6 v -12 -12 h 6 6 v -6 -6 h 18 18 v 6 6 h -12 -12 v 12 12 h 6 6 v 6 6 h 6 6 v 12 12 h -6 -6 v 6 6 h -18 -18 z m -4,-156 v -36 h 6 6 v -6 -6 h 18 18 v 6 6 h 6 6 v 36 36 h -12 -12 v -12 -12 h -6 -6 v 12 12 h -12 -12 z m 36,-18 v -18 h -6 -6 v 18 18 h 6 6 z"
       id="path212"
       inkscape:connector-curvature="0"
       sodipodi:nodetypes="ssssscccccsssscccsscsscccsccssscccsccscscccccssscsssssccccccccccccccccccccccccccccccccccccccccccccccccccccccccccccccccccccccccccc" />
    <path
       style="fill:#fe0000"
       d="m 108,398 v -6 h 12 12 v -12 -12 h -6 -6 v -6 -6 h -6 -6 v -12 -12 h 6 6 v -6 -6 h 18 18 v 6 6 h -12 -12 v 12 12 h 6 6 v 6 6 h 6 6 v 12 12 h -6 -6 v 6 6 h -18 -18 z m -4,-156 v -36 h 6 6 v -6 -6 h 18 18 v 6 6 h 6 6 v 36 36 h -12 -12 v -12 -12 h -6 -6 v 12 12 h -12 -12 z m 36,-18 v -18 h -6 -6 v 18 18 h 6 6 z m 143.66667,-47.66667 c -0.36667,-0.36666 -0.69659,-22.30416 -0.73317,-48.75 -0.0654,-47.295397 -0.65262,-58.211612 -3.76599,-70.008545 -0.8444,-3.199508 -4.79029,-7.682932 -21.34257,-24.25 L 237.5183,13 h 89.88849 89.8885 l 22.35269,22.25 c 17.72243,17.641011 22.5685,23.029596 23.39454,26.013517 0.6788,2.452064 0.94003,21.791859 0.74966,55.500003 -0.31786,56.28366 -0.14701,54.6528 -6.106,58.28625 -3.08884,1.8834 -5.78546,1.94287 -88.26951,1.94649 -46.79584,0.002 -85.38334,-0.29626 -85.75,-0.66293 z M 30.239863,157.74013 C 9.1671681,136.64431 8.2821176,135 18,135 c 5.161906,0 6,0.25731 6,1.84211 0,1.01316 5.102358,7.15199 11.338572,13.64186 9.016311,9.38304 11.47404,11.44674 12,10.07611 0.363786,-0.94801 0.658227,-24.74935 0.654314,-52.89187 L 47.985771,56.5 29.992886,38.617214 C 12.913901,21.642736 12,20.539899 12,16.904541 V 13.074655 L 97.25,12.787327 182.5,12.5 202.31708,32 c 10.89939,10.725 20.39762,20.625 21.10718,22 3.70672,7.182986 5.54995,33.57577 5.56389,79.66821 0.007,21.54252 -0.26129,39.88002 -0.59514,40.75 C 227.84576,175.84432 218.96233,176 138.13287,176 H 48.479726 Z"
       id="path210"
       inkscape:connector-curvature="0" />
    <path
       style="fill:#020203"
       d="m 283.66667,176.33333 c -0.36667,-0.36666 -0.69659,-22.30416 -0.73317,-48.75 -0.0654,-47.295397 -0.65262,-58.211612 -3.76599,-70.008545 -0.8444,-3.199508 -4.79029,-7.682932 -21.34257,-24.25 L 237.5183,13 h 89.88849 89.8885 l 22.35269,22.25 c 17.72243,17.641011 22.5685,23.029596 23.39454,26.013517 0.6788,2.452064 0.94003,21.791859 0.74966,55.500003 -0.31786,56.28366 -0.14701,54.6528 -6.106,58.28625 -3.08884,1.8834 -5.78546,1.94287 -88.26951,1.94649 -46.79584,0.002 -85.38334,-0.29626 -85.75,-0.66293 z M 30.239863,157.74013 C 9.1671681,136.64431 8.2821176,135 18,135 c 5.161906,0 6,0.25731 6,1.84211 0,1.01316 5.102358,7.15199 11.338572,13.64186 9.016311,9.38304 11.47404,11.44674 12,10.07611 0.363786,-0.94801 0.658227,-24.74935 0.654314,-52.89187 L 47.985771,56.5 29.992886,38.617214 C 12.913901,21.642736 12,20.539899 12,16.904541 V 13.074655 L 97.25,12.787327 182.5,12.5 202.31708,32 c 10.89939,10.725 20.39762,20.625 21.10718,22 3.70672,7.182986 5.54995,33.57577 5.56389,79.66821 0.007,21.54252 -0.26129,39.88002 -0.59514,40.75 C 227.84576,175.84432 218.96233,176 138.13287,176 H 48.479726 Z M 144,114 V 78 h 12 12 V 72 66 H 132 96 v 6 6 h 12 12 v 36 36 h 12 12 z"
       id="path208"
       inkscape:connector-curvature="0" />
  </g>
</svg>
